<svg width="24" height="24" viewBox="0 0 24 24" fill="none" xmlns="http://www.w3.org/2000/svg">
<path d="M15.59 12.26C18.4232 12.26 20.72 9.96323 20.72 7.13C20.72 4.29678 18.4232 2 15.59 2C12.7567 2 10.46 4.29678 10.46 7.13C10.46 9.96323 12.7567 12.26 15.59 12.26Z" stroke="#292D32" stroke-width="1.5" stroke-miterlimit="10"/>
<path d="M6.36026 19.4398C8.0613 19.4398 9.44028 18.0608 9.44028 16.3598C9.44028 14.6587 8.0613 13.2798 6.36026 13.2798C4.65922 13.2798 3.28027 14.6587 3.28027 16.3598C3.28027 18.0608 4.65922 19.4398 6.36026 19.4398Z" stroke="#292D32" stroke-width="1.5" stroke-miterlimit="10"/>
<path d="M16.6196 21.9999C18.0334 21.9999 19.1796 20.8537 19.1796 19.4399C19.1796 18.026 18.0334 16.8799 16.6196 16.8799C15.2057 16.8799 14.0596 18.026 14.0596 19.4399C14.0596 20.8537 15.2057 21.9999 16.6196 21.9999Z" stroke="#292D32" stroke-width="1.5" stroke-miterlimit="10"/>
</svg>
