<svg width="80" height="80" viewBox="0 0 80 80" fill="none" xmlns="http://www.w3.org/2000/svg">
<circle cx="40" cy="40" r="40" fill="#AE6610"/>
<path d="M51.9999 28H27.9999C26.5333 28 25.3333 29.2 25.3333 30.6667V34.6667H27.9999V30.6667H51.9999V49.3333H42.6666V52H51.9999C53.4666 52 54.6666 50.8 54.6666 49.3333V30.6667C54.6666 29.2 53.4666 28 51.9999 28ZM25.3333 48V52H29.3333C29.3333 49.7867 27.5466 48 25.3333 48ZM25.3333 42.6667V45.3333C29.0133 45.3333 31.9999 48.32 31.9999 52H34.6666C34.6666 46.84 30.4933 42.6667 25.3333 42.6667ZM25.3333 37.3333V40C26.9091 40 28.4695 40.3104 29.9255 40.9134C31.3814 41.5165 32.7042 42.4004 33.8185 43.5147C34.9328 44.629 35.8167 45.9519 36.4198 47.4078C37.0229 48.8637 37.3333 50.4241 37.3333 52H39.9999C39.9999 43.8933 33.4266 37.3333 25.3333 37.3333ZM38.6666 38.7867V41.4533L43.3333 44L47.9999 41.4533V38.7867L43.3333 41.3333L38.6666 38.7867ZM43.3333 32L35.9999 36L43.3333 40L50.6666 36L43.3333 32Z" fill="white"/>
</svg>
