<svg width="32" height="32" viewBox="0 0 32 32" fill="none" xmlns="http://www.w3.org/2000/svg">
<circle cx="16" cy="16" r="16" fill="#A4871D"/>
<path fill-rule="evenodd" clip-rule="evenodd" d="M23.9869 14C24.2427 10.72 20.5656 8 16.0012 8C11.4368 8 7.75972 10.72 8.01551 14H23.9869Z" fill="white"/>
<path fill-rule="evenodd" clip-rule="evenodd" d="M10.6779 17.5C11.1175 17.5 11.3014 17.64 11.5972 17.86C11.9569 18.13 12.4525 18.5 13.3398 18.5C14.2271 18.5 14.7227 18.13 15.0824 17.86C15.3782 17.63 15.5541 17.5 16.0017 17.5C16.4414 17.5 16.6252 17.64 16.921 17.86C17.2807 18.13 17.7763 18.5 18.6636 18.5C19.5509 18.5 20.0465 18.13 20.4062 17.86C20.702 17.63 20.8779 17.5 21.3255 17.5C21.7652 17.5 21.949 17.64 22.2448 17.86C22.6045 18.13 23.1001 18.49 23.9794 18.5V16.52C23.9794 16.52 23.3479 16.36 23.0522 16.14C22.6924 15.87 22.1968 15.5 21.3095 15.5C20.4222 15.5 19.9266 15.87 19.5669 16.14C19.2711 16.37 19.0873 16.5 18.6476 16.5C18.208 16.5 18.0241 16.36 17.7283 16.14C17.3686 15.87 16.873 15.5 15.9857 15.5C15.0984 15.5 14.6028 15.87 14.2431 16.14C13.9473 16.37 13.7715 16.5 13.3238 16.5C12.8842 16.5 12.7003 16.36 12.4045 16.14C12.0448 15.87 11.5492 15.5 10.6619 15.5C9.7746 15.5 9.27899 15.87 8.91928 16.14C8.62351 16.37 8.44765 16.5 8 16.5V18.5C8.8873 18.5 9.38291 18.13 9.76661 17.86C10.0624 17.63 10.2382 17.5 10.6779 17.5Z" fill="white"/>
<path fill-rule="evenodd" clip-rule="evenodd" d="M8 20V22C8 23.1 8.71943 24 9.59874 24H22.3887C23.268 24 23.9874 23.1 23.9874 22V20H8Z" fill="white"/>
</svg>
