<svg width="32" height="32" viewBox="0 0 32 32" fill="none" xmlns="http://www.w3.org/2000/svg">
<circle cx="16" cy="16" r="16" fill="#9969E7"/>
<path d="M22.677 9.32275C21.8242 8.46963 20.6857 8 19.4712 8C18.257 8 17.1186 8.46963 16.2655 9.32275L9.32273 16.2659C8.46962 17.1187 8 18.2572 8 19.4714C8 20.6859 8.46962 21.8244 9.32273 22.6772C10.1756 23.5304 11.314 24 12.5285 24C13.743 24 14.8811 23.5304 15.7343 22.6772L22.6773 15.7341C23.5304 14.8813 24 13.7428 24 12.5283C24 11.3138 23.5301 10.1756 22.677 9.32275ZM22.2999 15.357L19.0942 18.5628L13.4371 12.9057L16.6428 9.69985C17.3949 8.94753 18.3995 8.53337 19.4712 8.53337C20.5433 8.53337 21.5476 8.94753 22.2999 9.69985C23.0522 10.4519 23.4664 11.4565 23.4664 12.5283C23.4664 13.6001 23.0522 14.605 22.2999 15.357Z" fill="white"/>
</svg>
