<svg width="80" height="80" viewBox="0 0 80 80" fill="none" xmlns="http://www.w3.org/2000/svg">
<circle cx="40" cy="40" r="40" fill="#509D6F"/>
<path d="M43.4021 38.6239L41.9021 36.0259" stroke="white" stroke-width="2" stroke-linecap="round" stroke-linejoin="round"/>
<path d="M33.804 28L39 25L44.5 34.526L41.902 36.026L39.304 37.526L33.804 28Z" stroke="white" stroke-width="2" stroke-linecap="round" stroke-linejoin="round"/>
<path d="M31.8 47.9261L30.4 45.8281C29.7519 44.8085 29.3158 43.6688 29.1176 42.4771C28.9193 41.2853 28.9631 40.0658 29.2462 38.8913C29.5294 37.7168 30.0461 36.6113 30.7655 35.6408C31.485 34.6702 32.3925 33.8545 33.434 33.2421L36 31.7861" stroke="white" stroke-width="2" stroke-linecap="round" stroke-linejoin="round"/>
<path d="M42.4041 46.726L50.5881 42" stroke="white" stroke-width="2" stroke-linecap="round" stroke-linejoin="round"/>
<path d="M53 55H29V53C29 51.4087 29.6321 49.8826 30.7574 48.7574C31.8826 47.6321 33.4087 47 35 47C36.5913 47 38.1174 47.6321 39.2426 48.7574C40.3679 49.8826 41 51.4087 41 53V55" stroke="white" stroke-width="2" stroke-linecap="round" stroke-linejoin="round"/>
</svg>
