<svg width="24" height="24" viewBox="0 0 24 24" fill="none" xmlns="http://www.w3.org/2000/svg">
<g clip-path="url(#clip0_614_2294)">
<path d="M12 23.25V9.75" stroke="#1000A6" stroke-width="2" stroke-miterlimit="10"/>
<path d="M16.125 13.875L12 9.75L7.875 13.875" stroke="#1000A6" stroke-width="2" stroke-miterlimit="10" stroke-linecap="square"/>
<path d="M1.125 6H22.875" stroke="#1000A6" stroke-width="2" stroke-miterlimit="10" stroke-linecap="square"/>
<path d="M9 18H3C2.75377 18 2.50995 17.9515 2.28247 17.8573C2.05498 17.763 1.84828 17.6249 1.67417 17.4508C1.50006 17.2767 1.36195 17.07 1.26773 16.8425C1.1735 16.615 1.125 16.3712 1.125 16.125V3.75C1.125 3.25272 1.32254 2.77581 1.67417 2.42417C2.02581 2.07254 2.50272 1.875 3 1.875H21C21.4973 1.875 21.9742 2.07254 22.3258 2.42417C22.6775 2.77581 22.875 3.25272 22.875 3.75V16.125C22.875 16.3712 22.8265 16.615 22.7323 16.8425C22.638 17.07 22.4999 17.2767 22.3258 17.4508C22.1517 17.6249 21.945 17.763 21.7175 17.8573C21.49 17.9515 21.2462 18 21 18H15" stroke="#1000A6" stroke-width="2" stroke-miterlimit="10" stroke-linecap="square"/>
<path d="M3.5625 4.5C3.87316 4.5 4.125 4.24816 4.125 3.9375C4.125 3.62684 3.87316 3.375 3.5625 3.375C3.25184 3.375 3 3.62684 3 3.9375C3 4.24816 3.25184 4.5 3.5625 4.5Z" fill="#1000A6"/>
<path d="M5.8125 4.5C6.12316 4.5 6.375 4.24816 6.375 3.9375C6.375 3.62684 6.12316 3.375 5.8125 3.375C5.50184 3.375 5.25 3.62684 5.25 3.9375C5.25 4.24816 5.50184 4.5 5.8125 4.5Z" fill="#1000A6"/>
</g>
<defs>
<clipPath id="clip0_614_2294">
<rect width="24" height="24" fill="white"/>
</clipPath>
</defs>
</svg>
