<svg width="20" height="20" viewBox="0 0 20 20" fill="none" xmlns="http://www.w3.org/2000/svg">
<path d="M19.1667 11.25V8.75004L16.46 8.38087C16.3009 7.74563 16.0481 7.1376 15.71 6.57671L17.3634 4.40171L15.5984 2.63421L13.4234 4.28754C12.8625 3.94949 12.2544 3.69673 11.6192 3.53754L11.25 0.833374H8.75004L8.38087 3.54004C7.74563 3.69923 7.1376 3.95199 6.57671 4.29004L4.40171 2.63421L2.63421 4.40171L4.28754 6.57671C3.94949 7.1376 3.69673 7.74563 3.53754 8.38087L0.833374 8.75004V11.25L3.54004 11.6192C3.69923 12.2544 3.95199 12.8625 4.29004 13.4234L2.63671 15.5984L4.40421 17.3659L6.57921 15.7125C7.1401 16.0506 7.74813 16.3034 8.38337 16.4625L8.75004 19.1667H11.25L11.6192 16.46C12.2544 16.3009 12.8625 16.0481 13.4234 15.71L15.5984 17.3634L17.3659 15.5959L15.7125 13.4209C16.0506 12.86 16.3034 12.2519 16.4625 11.6167L19.1667 11.25Z" stroke="#606060" stroke-width="2" stroke-miterlimit="10" stroke-linecap="square"/>
<path d="M10 12.5C11.3807 12.5 12.5 11.3807 12.5 10C12.5 8.61929 11.3807 7.5 10 7.5C8.61929 7.5 7.5 8.61929 7.5 10C7.5 11.3807 8.61929 12.5 10 12.5Z" stroke="#606060" stroke-width="2" stroke-miterlimit="10" stroke-linecap="square"/>
</svg>
