<svg width="32" height="32" viewBox="0 0 32 32" fill="none" xmlns="http://www.w3.org/2000/svg">
<circle cx="16" cy="16" r="16" fill="#266C75"/>
<path d="M23.7553 13.4365C23.589 13.0815 23.355 12.8782 23.1133 12.8782H22.7498V12.3559C22.7498 11.4176 22.2918 10.6538 21.729 10.6538H21.2498V9.68974C21.2498 9.23597 21.141 8.79332 20.9518 8.47479C20.5753 7.84174 19.9246 7.84174 19.5481 8.47479C19.3586 8.79377 19.2498 9.23642 19.2498 9.69019V14.2132H12.7499V9.69019C12.7499 9.23642 12.6414 8.79377 12.4519 8.47524C12.0754 7.84218 11.4247 7.84218 11.0482 8.47524C10.8587 8.79377 10.75 9.23642 10.75 9.69019V10.6542H10.2125C9.95972 10.6542 9.72072 10.8166 9.53923 11.1116C9.35548 11.4118 9.24998 11.8309 9.24998 12.2607V12.8782H8.88999C8.64699 12.8782 8.41199 13.0824 8.24525 13.4387C8.08725 13.7768 8 14.2212 8 14.6897V17.2949C8 17.7633 8.08725 18.2077 8.2455 18.5458C8.41224 18.9022 8.64724 19.1064 8.88999 19.1064H9.24998V19.7239C9.24998 20.1536 9.35548 20.5727 9.53973 20.8739C9.72072 21.1684 9.95972 21.3308 10.2125 21.3308H10.75V22.2948C10.75 22.7486 10.8587 23.1912 11.048 23.5093C11.2362 23.8256 11.4854 24 11.7499 24C12.0144 24 12.2637 23.8256 12.4519 23.5093C12.6414 23.1908 12.7499 22.7481 12.7499 22.2948V17.7718H19.2498V22.2948C19.2498 22.7486 19.3586 23.1912 19.5478 23.5093C19.7361 23.8256 19.9853 24 20.2498 24C20.5143 24 20.7636 23.8256 20.9518 23.5093C21.141 23.1908 21.2498 22.7481 21.2498 22.2948V21.3308H21.729C22.2918 21.3308 22.7498 20.5674 22.7498 19.6287V19.1064H23.1133C23.355 19.1064 23.589 18.9026 23.7555 18.5481C23.913 18.2113 24 17.7691 24 17.3024V14.6826C23.9998 14.2159 23.913 13.7732 23.7553 13.4365ZM8.88999 18.2166C8.79474 18.2166 8.70224 18.1312 8.62974 17.9764C8.54724 17.8007 8.49999 17.552 8.49999 17.2949V14.6897C8.49999 14.4325 8.54724 14.1843 8.62974 14.0081C8.70224 13.8533 8.79474 13.7679 8.88999 13.7679H9.24998V18.2166H8.88999ZM10.2125 20.441C10.0867 20.441 9.96447 20.3596 9.87772 20.2181C9.79522 20.0833 9.74997 19.908 9.74997 19.7239V18.6615V13.323V12.2607C9.74997 12.0765 9.79522 11.9008 9.87722 11.7669C9.96472 11.6249 10.0867 11.5435 10.2125 11.5435H10.75V20.441H10.2125ZM12.2499 22.2948C12.2499 22.5079 12.1997 22.7094 12.1087 22.8625C11.9212 23.1774 11.5789 23.1774 11.3914 22.8625C11.3002 22.7094 11.2499 22.5074 11.2499 22.2948V20.8859V11.0987V9.68974C11.2499 9.47665 11.3002 9.27512 11.3912 9.12208C11.4849 8.9646 11.6157 8.87429 11.7499 8.87429C11.8842 8.87429 12.0149 8.9646 12.1087 9.12208C12.1997 9.27512 12.2499 9.47709 12.2499 9.69019V14.6581V17.3273V22.2948ZM12.7499 16.882V15.1025H19.2498V16.882H12.7499ZM20.7498 22.2948C20.7498 22.5079 20.6996 22.7094 20.6086 22.8625C20.4211 23.1774 20.0788 23.1774 19.8913 22.8625C19.8001 22.7094 19.7498 22.5074 19.7498 22.2948V17.3269V14.6576V9.69019C19.7498 9.47709 19.8001 9.27556 19.8911 9.12253C19.9848 8.96504 20.1156 8.87473 20.2498 8.87473C20.3841 8.87473 20.5148 8.96504 20.6086 9.12253C20.6996 9.27512 20.7498 9.47709 20.7498 9.69019V11.0991V20.8863V22.2948ZM22.2498 19.6287C22.2498 20.0767 22.0163 20.441 21.729 20.441H21.2498V11.5435H21.729C22.016 11.5435 22.2498 11.9079 22.2498 12.3559V13.323V18.6615V19.6287ZM23.4998 17.302C23.4998 17.5573 23.4528 17.8034 23.3713 17.9782C23.2993 18.1321 23.2075 18.2166 23.1133 18.2166H22.7498V13.7679H23.1133C23.2075 13.7679 23.2993 13.8524 23.3713 14.0064C23.453 14.1807 23.4998 14.4272 23.4998 14.6826V17.302Z" fill="white"/>
</svg>
