<svg width="24" height="24" viewBox="0 0 24 24" fill="none" xmlns="http://www.w3.org/2000/svg">
<path d="M23 10.5C22.8674 10.5 22.7402 10.4473 22.6464 10.3536C22.5527 10.2598 22.5 10.1326 22.5 10C22.4976 7.74639 21.6013 5.58577 20.0078 3.99222C18.4142 2.39868 16.2536 1.50238 14 1.5C13.8674 1.5 13.7402 1.44732 13.6464 1.35355C13.5527 1.25979 13.5 1.13261 13.5 1C13.5 0.867392 13.5527 0.740215 13.6464 0.646447C13.7402 0.552678 13.8674 0.5 14 0.5C16.5187 0.502779 18.9335 1.50456 20.7144 3.28556C22.4954 5.06655 23.4972 7.4813 23.5 10C23.5 10.1326 23.4473 10.2598 23.3536 10.3536C23.2598 10.4473 23.1326 10.5 23 10.5Z" fill="#49C549"/>
<path d="M19 10.5C18.8674 10.5 18.7402 10.4473 18.6464 10.3536C18.5527 10.2598 18.5 10.1326 18.5 10C18.4985 8.80697 18.024 7.66323 17.1804 6.81963C16.3368 5.97603 15.193 5.50146 14 5.5C13.8674 5.5 13.7402 5.44732 13.6464 5.35355C13.5527 5.25979 13.5 5.13261 13.5 5C13.5 4.86739 13.5527 4.74021 13.6464 4.64645C13.7402 4.55268 13.8674 4.5 14 4.5C15.4582 4.50172 16.8561 5.08174 17.8872 6.11281C18.9183 7.14389 19.4983 8.54184 19.5 10C19.5 10.1326 19.4473 10.2598 19.3536 10.3536C19.2598 10.4473 19.1326 10.5 19 10.5Z" fill="#9EE09E"/>
<path d="M15.688 14.5874L13.895 16.8289C11.118 15.1968 8.80376 12.8828 7.1715 10.1059L9.413 8.3129C9.67557 8.10255 9.86113 7.81121 9.94072 7.48433C10.0203 7.15744 9.98947 6.81341 9.853 6.5059L7.8095 1.9059C7.66311 1.57586 7.40419 1.3086 7.07897 1.1518C6.75375 0.995005 6.38339 0.958888 6.034 1.0499L2.145 2.0574C1.78214 2.15236 1.46668 2.37706 1.25835 2.68897C1.05001 3.00087 0.963255 3.37833 1.0145 3.7499C1.69739 8.60991 3.94373 13.1156 7.41404 16.5859C10.8843 20.0562 15.39 22.3025 20.25 22.9854C20.6214 23.0368 20.9988 22.9502 21.3106 22.7419C21.6223 22.5337 21.8468 22.2182 21.9415 21.8554L22.95 17.9659C23.0408 17.6165 23.0046 17.2462 22.8478 16.9211C22.691 16.5959 22.4239 16.337 22.094 16.1904L17.495 14.1499C17.1878 14.0131 16.8439 13.9818 16.517 14.0609C16.1901 14.1401 15.8986 14.3252 15.688 14.5874Z" fill="#3D6C7B"/>
</svg>
