<svg width="80" height="80" viewBox="0 0 80 80" fill="none" xmlns="http://www.w3.org/2000/svg">
<circle cx="40" cy="40" r="40" fill="#9D5050"/>
<path d="M36.0399 52.9202L39.1466 50.3068C39.6132 49.9068 40.3866 49.9068 40.8532 50.3068L43.9599 52.9202C44.6799 53.2802 45.5599 52.9202 45.8266 52.1468L46.4132 50.3735C46.5599 49.9468 46.4132 49.3202 46.0932 49.0002L43.0666 45.9602C42.8399 45.7468 42.6666 45.3202 42.6666 45.0135V41.2135C42.6666 40.6535 43.0799 40.3868 43.5999 40.6002L50.1466 43.4268C51.1732 43.8668 52.0132 43.3202 52.0132 42.2002V40.4802C52.0132 39.5868 51.3466 38.5602 50.5199 38.2135L43.0666 35.0002C42.8532 34.9068 42.6666 34.6268 42.6666 34.3868V30.3868C42.6666 29.1335 41.7466 27.6535 40.6266 27.0802C40.2266 26.8802 39.7599 26.8802 39.3599 27.0802C38.2399 27.6535 37.3199 29.1468 37.3199 30.4002V34.4002C37.3199 34.6402 37.1332 34.9202 36.9199 35.0135L29.4799 38.2268C28.6532 38.5602 27.9866 39.5868 27.9866 40.4802V42.2002C27.9866 43.3202 28.8266 43.8668 29.8532 43.4268L36.3999 40.6002C36.9066 40.3735 37.3332 40.6535 37.3332 41.2135V45.0135C37.3332 45.3202 37.1599 45.7468 36.9466 45.9602L33.9199 49.0002C33.5999 49.3202 33.4532 49.9335 33.5999 50.3735L34.1866 52.1468C34.4266 52.9202 35.3066 53.2935 36.0399 52.9202Z" stroke="white" stroke-width="1.5" stroke-linecap="round" stroke-linejoin="round"/>
</svg>
